<?xml version="1.0" encoding="utf-8"?>
<!-- Generator: Adobe Illustrator 23.0.1, SVG Export Plug-In . SVG Version: 6.00 Build 0)  -->
<svg version="1.1" id="Vrstva_1" xmlns="http://www.w3.org/2000/svg" xmlns:xlink="http://www.w3.org/1999/xlink" x="0px" y="0px"
	 viewBox="0 0 39.8 58.1" style="enable-background:new 0 0 39.8 58.1;" xml:space="preserve">
<style type="text/css">
	.st0{enable-background:new    ;}
	.st1{fill:#1D1D1B;}
	.st2{fill:none;}
</style>
<title>info</title>
<g class="st0" transform="translate(0, -5)">
	<path class="st1" d="M13.2,57.5h-1.4v-8.4h1.4V57.5z"/>
	<path class="st1" d="M14.5,57.5v-8.4h1.4l1.5,4.8h0v-4.8h1.4v8.4h-1.4l-1.5-4.8h0v4.8H14.5z"/>
	<path class="st1" d="M23.4,50.4h-1.9v2.3h1.7v1.2h-1.7v3.6H20v-8.4h3.4V50.4z"/>
	<path class="st1" d="M25.6,57.5c-1,0-1.7-0.7-1.7-1.7v-5c0-1,0.7-1.7,1.7-1.7h1c1,0,1.7,0.7,1.7,1.7v5c0,1-0.7,1.7-1.7,1.7H25.6z
		 M26.8,55.9v-5.2c0-0.2-0.1-0.4-0.4-0.4h-0.7c-0.2,0-0.4,0.1-0.4,0.4v5.2c0,0.2,0.1,0.4,0.4,0.4h0.7C26.6,56.3,26.8,56.1,26.8,55.9
		z"/>
</g>
<g transform="translate(20.4 19.4) scale(0.88) translate(-20.4 -19.4)">
<g>
	<path class="st1" d="M25.2,19.3h-3.1v11.2H18V19.3h-2.9v-3.9H18v-2.3c0-3.1,0.9-5.1,4.6-5.1h3.1V12h-2c-1.5,0-1.5,0.6-1.5,1.6v1.9
		h3.5L25.2,19.3z"/>
</g>
<g>
	<path class="st1" d="M20.4,38.7C9.7,38.7,1,30,1,19.4C1,8.7,9.7,0,20.4,0h0c10.7,0,19.4,8.7,19.4,19.4C39.8,30,31.1,38.7,20.4,38.7
		z M20.4,1.2c-10,0-18.1,8.1-18.1,18.1s8.1,18.1,18.1,18.1c10,0,18.1-8.1,18.1-18.1C38.5,9.4,30.4,1.3,20.4,1.2L20.4,1.2z"/>
</g>
</g>
<g>
	<rect y="0" class="st2" width="39.8" height="58.1"/>
</g>
</svg>
