<?xml version="1.0" encoding="utf-8"?>
<!-- Generator: Adobe Illustrator 23.0.1, SVG Export Plug-In . SVG Version: 6.00 Build 0)  -->
<svg version="1.1" id="Vrstva_1" xmlns="http://www.w3.org/2000/svg" xmlns:xlink="http://www.w3.org/1999/xlink" x="0px" y="0px"
	 viewBox="0 0 39.8 58.2" style="enable-background:new 0 0 39.8 58.2;" xml:space="preserve">
<style type="text/css">
	.st0{clip-path:url(#SVGID_2_);}
	.st1{enable-background:new    ;}
	.st2{fill:#1D1D1B;}
	.st3{clip-path:url(#SVGID_4_);}
</style>
<title>insta</title>
<g>
	<defs>
		<rect id="SVGID_1_" y="0" width="39.8" height="58.2"/>
	</defs>
	<clipPath id="SVGID_2_">
		<use xlink:href="#SVGID_1_"  style="overflow:visible;"/>
	</clipPath>
	<g class="st0">
		<g transform="translate(0, -5)">
		<g class="st1">
			<path class="st2" d="M10.6,58.2H9.2v-8.4h1.4V58.2z"/>
			<path class="st2" d="M12,58.2v-8.4h1.4l1.5,4.8h0v-4.8h1.4v8.4h-1.4l-1.5-4.8h0v4.8H12z"/>
			<path class="st2" d="M19.1,54.6c-1,0-1.7-0.7-1.7-1.7v-1.4c0-1,0.7-1.7,1.7-1.7H20c1,0,1.7,0.7,1.7,1.7v0.9h-1.4v-0.9
				c0-0.2-0.1-0.4-0.4-0.4h-0.6c-0.2,0-0.4,0.1-0.4,0.4V53c0,0.2,0.1,0.4,0.4,0.4H20c1,0,1.7,0.7,1.7,1.7v1.5c0,1-0.7,1.7-1.7,1.7
				h-0.9c-1,0-1.7-0.7-1.7-1.7v-0.9h1.4v0.9c0,0.2,0.1,0.4,0.4,0.4h0.6c0.2,0,0.4-0.1,0.4-0.4V55c0-0.2-0.1-0.4-0.4-0.4H19.1z"/>
		</g>
		<g class="st1">
			<path class="st2" d="M23.8,51.1h-1.5v-1.2h4.4v1.2h-1.5v7.1h-1.4V51.1z"/>
		</g>
		<g class="st1">
			<path class="st2" d="M31.2,58.2h-1.5l-0.3-1.6H28l-0.3,1.6h-1.4l1.6-8.4h1.5L31.2,58.2z M28.7,52.6L28.7,52.6l-0.5,2.8h1
				L28.7,52.6z"/>
		</g>
		</g>
		<g transform="translate(20.5 19.2) scale(0.88) translate(-20.5 -19.2)">
		<g>
			<path class="st2" d="M20.5,22.9c2.1,0,3.7-1.7,3.7-3.7c0-0.8-0.2-1.5-0.7-2.2c-1.2-1.7-3.5-2-5.2-0.9c-1.7,1.2-2,3.5-0.9,5.2
				C18.2,22.4,19.4,22.9,20.5,22.9"/>
		</g>
		<g>
			<polygon class="st2" points="28.7,14.7 28.7,11.1 28.2,11.1 25.1,11.1 25.1,14.7 	"/>
		</g>
		<g>
			<path class="st2" d="M20.6,38.4C20.5,38.4,20.5,38.4,20.6,38.4c-10.6,0-19.2-8.6-19.2-19.2c0-5.1,2-10,5.6-13.6
				C10.6,2,15.4,0,20.5,0c0,0,0,0,0,0h0c10.6,0,19.2,8.6,19.2,19.2c0,5.1-2,10-5.6,13.6C30.5,36.4,25.7,38.4,20.6,38.4z M20.5,1.2
				c-4.8,0-9.3,1.9-12.7,5.3c-3.4,3.4-5.3,7.9-5.3,12.7c0,9.9,8,18,18,18c0,0,0,0,0,0c4.8,0,9.3-1.9,12.7-5.3
				c3.4-3.4,5.3-7.9,5.3-12.7C38.5,9.3,30.4,1.3,20.5,1.2C20.6,1.2,20.6,1.2,20.5,1.2z M27,30.4C27,30.4,27,30.4,27,30.4l-13,0
				c-2.6,0-4.6-2.2-4.6-4.7v-13c0-2.6,2.1-4.7,4.7-4.7H27c2.6,0,4.7,2.1,4.7,4.7l0,4.3v8.7c0,1.3-0.5,2.4-1.4,3.3
				C29.5,29.9,28.3,30.4,27,30.4z M14.1,9.2c-1.9,0-3.5,1.6-3.5,3.5v13c0,1.9,1.5,3.4,3.4,3.5h13c0,0,0,0,0,0c1,0,1.8-0.4,2.5-1
				c0.7-0.7,1-1.5,1-2.4l0-13c0-1.9-1.6-3.5-3.5-3.5H14.1z"/>
		</g>
		<g>
			<path class="st2" d="M26.3,19.2c0,3.2-2.6,5.8-5.8,5.7s-5.8-2.6-5.7-5.8c0-0.7,0.1-1.4,0.4-2.1h-3.1v8.7c0,1.1,0.9,2,2,2H27
				c1.1,0,2-0.9,2-2V17h-3.1C26.2,17.7,26.3,18.4,26.3,19.2"/>
		</g>
		</g>
	</g>
</g>
</svg>
