<?xml version="1.0" encoding="utf-8"?>
<!-- Generator: Adobe Illustrator 23.0.1, SVG Export Plug-In . SVG Version: 6.00 Build 0)  -->
<svg version="1.1" id="Vrstva_1" xmlns="http://www.w3.org/2000/svg" xmlns:xlink="http://www.w3.org/1999/xlink" x="0px" y="0px"
	 viewBox="0 0 39.8 58.1" style="enable-background:new 0 0 39.8 58.1;" xml:space="preserve">
<style type="text/css">
	.st0{clip-path:url(#SVGID_2_);}
	.st1{enable-background:new    ;}
	.st2{fill:#1D1D1B;}
</style>
<title>video</title>
<g>
	<defs>
		<rect id="SVGID_1_" y="0" width="39.8" height="58.1"/>
	</defs>
	<clipPath id="SVGID_2_">
		<use xlink:href="#SVGID_1_"  style="overflow:visible;"/>
	</clipPath>
	<g class="st0">
		<g class="st1" transform="translate(0, -5)">
			<path class="st2" d="M8.5,49.7H10l0.9,5.7h0l0.9-5.7h1.4l-1.6,8.4h-1.5L8.5,49.7z"/>
			<path class="st2" d="M15.5,58.1h-1.4v-8.4h1.4V58.1z"/>
			<path class="st2" d="M16.8,49.7h2.7c1,0,1.7,0.7,1.7,1.7v5c0,1-0.7,1.7-1.7,1.7h-2.7V49.7z M19.3,56.9c0.2,0,0.4-0.1,0.4-0.4
				v-5.2c0-0.2-0.1-0.4-0.4-0.4h-1.1v5.9H19.3z"/>
			<path class="st2" d="M25.6,51h-1.9v2.3h1.7v1.2h-1.7v2.4h2v1.2h-3.5v-8.4h3.4V51z"/>
			<path class="st2" d="M28.2,58.1c-1,0-1.7-0.7-1.7-1.7v-5c0-1,0.7-1.7,1.7-1.7h1c1,0,1.7,0.7,1.7,1.7v5c0,1-0.7,1.7-1.7,1.7H28.2z
				 M29.4,56.5v-5.2c0-0.2-0.1-0.4-0.4-0.4h-0.7c-0.2,0-0.4,0.1-0.4,0.4v5.2c0,0.2,0.1,0.4,0.4,0.4h0.7
				C29.3,56.9,29.4,56.7,29.4,56.5z"/>
		</g>
		<g transform="translate(19.1 19.1) scale(0.88) translate(-19.1 -19.1)">
		<g>
			<path class="st2" d="M19.1,38.2C8.6,38.2,0,29.6,0,19.1S8.6,0,19.1,0c10.5,0,19.1,8.6,19.1,19.1S29.6,38.2,19.1,38.2z M19.1,1.3
				c-9.8,0-17.8,8-17.8,17.8s8,17.8,17.8,17.8c9.8,0,17.8-8,17.8-17.8S28.9,1.3,19.1,1.3z"/>
		</g>
		<g>
			<path class="st2" d="M17.7,11.3c0-0.6,0.2-1,0.6-1s0.6,0.3,0.6,1v2.9c0,0.7-0.2,1-0.6,1c-0.4,0-0.6-0.3-0.6-1V11.3z M18.3,16.3
				c0.6,0,1.1-0.2,1.5-0.7c0.3-0.5,0.4-1,0.4-1.6v-2.5c0-0.6-0.1-1.1-0.4-1.6c-0.6-0.8-1.8-0.9-2.6-0.3c-0.1,0.1-0.2,0.2-0.3,0.3
				c-0.3,0.5-0.4,1.1-0.4,1.6V14c0,0.6,0.1,1.1,0.4,1.6C17.1,16.1,17.7,16.4,18.3,16.3"/>
		</g>
		<g>
			<path class="st2" d="M26,22.5c-0.4,0-0.6,0.3-0.6,1v0.6h1.2v-0.6C26.6,22.9,26.4,22.5,26,22.5"/>
		</g>
		<g>
			<path class="st2" d="M21.4,22.5c-0.2,0-0.5,0.1-0.6,0.3V27c0.2,0.2,0.4,0.3,0.6,0.3c0.4,0,0.5-0.3,0.5-0.9v-2.9
				C21.9,22.9,21.7,22.5,21.4,22.5"/>
		</g>
		<g>
			<path class="st2" d="M13.3,12.4v3.8h1.4v-3.8l1.7-5.6H15l-1,3.7l-1-3.7h-1.4l0.9,2.6C12.8,10.5,13.1,11.4,13.3,12.4"/>
		</g>
		<g>
			<path class="st2" d="M27.9,25.2h-2.5v1.2c0,0.6,0.2,1,0.6,1c0.3,0,0.5-0.2,0.6-0.5c0-0.3,0-0.6,0-0.8h1.3v0.2c0,0.4,0,0.7,0,0.8
				c0,0.3-0.1,0.5-0.3,0.8c-0.3,0.5-0.9,0.8-1.5,0.7c-0.6,0-1.1-0.2-1.5-0.7c-0.3-0.5-0.4-1.1-0.4-1.6v-2.5c0-0.6,0.1-1.1,0.4-1.6
				c0.3-0.5,0.9-0.7,1.5-0.7c0.6,0,1.1,0.2,1.5,0.7c0.3,0.5,0.4,1.1,0.4,1.6L27.9,25.2z M23.2,26.3c0,0.5-0.1,0.9-0.2,1.4
				c-0.1,0.5-0.5,0.8-1,0.8c-0.5,0-1-0.3-1.3-0.8v0.7h-1.2v-9.2h1.2v3c0.3-0.4,0.7-0.7,1.2-0.7c0.5,0,0.9,0.3,1,0.8
				c0.1,0.5,0.1,0.9,0.1,1.4L23.2,26.3z M18.4,28.4h-1.2v-0.8c-0.3,0.5-0.8,0.8-1.4,0.8c-0.3,0-0.6-0.2-0.8-0.5
				c-0.1-0.3-0.1-0.7-0.1-1v-5.5h1.2v5.1c0,0.2,0,0.3,0,0.5c0,0.2,0.1,0.3,0.3,0.3s0.5-0.2,0.8-0.6v-5.3h1.2L18.4,28.4z M14.7,20.5
				h-1.5v7.9h-1.4v-7.9h-1.5v-1.3h4.3L14.7,20.5z M29.1,19.2c-0.3-1.1-1.1-1.9-2.2-2c-2.6-0.2-5.1-0.3-7.7-0.3c-2.6,0-5.2,0-7.7,0.3
				c-1.1,0.1-2,0.9-2.2,2c-0.3,1.6-0.4,3.2-0.4,4.9c-0.1,1.6,0.1,3.3,0.4,4.9c0.2,1.1,1.1,1.9,2.2,2c2.6,0.2,5.1,0.3,7.7,0.3
				c2.6,0.1,5.1,0,7.7-0.3c1.1-0.1,1.9-0.9,2.2-2c0.3-1.6,0.4-3.2,0.4-4.9C29.4,22.5,29.3,20.9,29.1,19.2"/>
		</g>
		<g>
			<path class="st2" d="M22.1,16.3c0.6-0.1,1.1-0.4,1.4-0.9v0.8h1.3V9.3h-1.3v5.3c-0.3,0.4-0.5,0.6-0.8,0.6s-0.3-0.1-0.3-0.3
				c0-0.2,0-0.3,0-0.5V9.3h-1.3v5.5c0,0.3,0,0.7,0.1,1C21.4,16.1,21.7,16.3,22.1,16.3"/>
		</g>
		</g>
	</g>
</g>
</svg>
